<mxfile host="app.diagrams.net" modified="2020-10-06T03:23:36.152Z" agent="5.0 (Macintosh; Intel Mac OS X 10_13_6) AppleWebKit/537.36 (KHTML, like Gecko) Chrome/85.0.4183.102 Safari/537.36" etag="3G0sFjFBL_kWlfEXo4CC" version="13.7.6" type="github">
  <diagram id="BYY_NkoVvPpYxtkkBOKb" name="Page-1">
    <mxGraphModel dx="2404" dy="1077" grid="1" gridSize="10" guides="1" tooltips="1" connect="1" arrows="1" fold="1" page="1" pageScale="1" pageWidth="827" pageHeight="1169" math="0" shadow="0">
      <root>
        <mxCell id="0" />
        <mxCell id="1" parent="0" />
        <mxCell id="_yqxd_mWuDGugmXsIpkd-111" value="" style="rounded=0;whiteSpace=wrap;html=1;strokeWidth=1;fontSize=12;" vertex="1" parent="1">
          <mxGeometry x="30" y="1080" width="1027" height="380" as="geometry" />
        </mxCell>
        <mxCell id="_yqxd_mWuDGugmXsIpkd-55" value="" style="rounded=0;whiteSpace=wrap;html=1;fillColor=#e1d5e7;strokeColor=#9673a6;" vertex="1" parent="1">
          <mxGeometry x="38.66" y="423.96" width="187.31" height="155" as="geometry" />
        </mxCell>
        <mxCell id="_yqxd_mWuDGugmXsIpkd-30" value="" style="rounded=0;whiteSpace=wrap;html=1;fillColor=#e1d5e7;strokeColor=#9673a6;" vertex="1" parent="1">
          <mxGeometry x="690" y="419" width="190" height="152" as="geometry" />
        </mxCell>
        <mxCell id="_yqxd_mWuDGugmXsIpkd-24" value="" style="rounded=0;whiteSpace=wrap;html=1;fillColor=#e1d5e7;strokeColor=#9673a6;" vertex="1" parent="1">
          <mxGeometry x="280" y="160" width="332" height="690" as="geometry" />
        </mxCell>
        <mxCell id="_yqxd_mWuDGugmXsIpkd-25" value="kafka broker 集群" style="text;html=1;strokeColor=none;fillColor=none;align=center;verticalAlign=middle;whiteSpace=wrap;rounded=0;fontSize=15;" vertex="1" parent="1">
          <mxGeometry x="383.31" y="170" width="135" height="20" as="geometry" />
        </mxCell>
        <mxCell id="_yqxd_mWuDGugmXsIpkd-14" value="" style="rounded=0;whiteSpace=wrap;html=1;" vertex="1" parent="1">
          <mxGeometry x="352" y="440.35571428571427" width="188" height="163.92857142857142" as="geometry" />
        </mxCell>
        <mxCell id="_yqxd_mWuDGugmXsIpkd-16" value="" style="rounded=0;whiteSpace=wrap;html=1;" vertex="1" parent="1">
          <mxGeometry x="350.66" y="650.0014285714285" width="188" height="163.92857142857142" as="geometry" />
        </mxCell>
        <mxCell id="_yqxd_mWuDGugmXsIpkd-12" value="" style="rounded=0;whiteSpace=wrap;html=1;" vertex="1" parent="1">
          <mxGeometry x="352" y="230.89" width="188" height="163.92857142857142" as="geometry" />
        </mxCell>
        <mxCell id="_yqxd_mWuDGugmXsIpkd-13" value="broker 1" style="text;html=1;strokeColor=none;fillColor=none;align=center;verticalAlign=middle;whiteSpace=wrap;rounded=0;" vertex="1" parent="1">
          <mxGeometry x="479.9961538461538" y="230.89" width="72.3076923076923" height="18.214285714285715" as="geometry" />
        </mxCell>
        <mxCell id="_yqxd_mWuDGugmXsIpkd-15" value="broker 2" style="text;html=1;strokeColor=none;fillColor=none;align=center;verticalAlign=middle;whiteSpace=wrap;rounded=0;" vertex="1" parent="1">
          <mxGeometry x="479.9961538461538" y="442.17571428571426" width="72.3076923076923" height="18.214285714285715" as="geometry" />
        </mxCell>
        <mxCell id="_yqxd_mWuDGugmXsIpkd-17" value="broker 3" style="text;html=1;strokeColor=none;fillColor=none;align=center;verticalAlign=middle;whiteSpace=wrap;rounded=0;" vertex="1" parent="1">
          <mxGeometry x="478.6561538461538" y="652.0014285714285" width="72.3076923076923" height="18.214285714285715" as="geometry" />
        </mxCell>
        <mxCell id="_yqxd_mWuDGugmXsIpkd-48" style="edgeStyle=orthogonalEdgeStyle;rounded=0;orthogonalLoop=1;jettySize=auto;html=1;exitX=0;exitY=0.5;exitDx=0;exitDy=0;entryX=1;entryY=0.5;entryDx=0;entryDy=0;strokeColor=#FF6666;strokeWidth=2;" edge="1" parent="1" source="_yqxd_mWuDGugmXsIpkd-27" target="_yqxd_mWuDGugmXsIpkd-2">
          <mxGeometry relative="1" as="geometry">
            <Array as="points">
              <mxPoint x="630" y="483" />
              <mxPoint x="630" y="276" />
            </Array>
          </mxGeometry>
        </mxCell>
        <mxCell id="_yqxd_mWuDGugmXsIpkd-53" style="edgeStyle=orthogonalEdgeStyle;rounded=0;orthogonalLoop=1;jettySize=auto;html=1;exitX=0;exitY=0.5;exitDx=0;exitDy=0;entryX=1;entryY=0.5;entryDx=0;entryDy=0;strokeColor=#FF6666;strokeWidth=2;" edge="1" parent="1" source="_yqxd_mWuDGugmXsIpkd-27" target="_yqxd_mWuDGugmXsIpkd-7">
          <mxGeometry relative="1" as="geometry">
            <Array as="points">
              <mxPoint x="630" y="483" />
              <mxPoint x="630" y="577" />
            </Array>
          </mxGeometry>
        </mxCell>
        <mxCell id="_yqxd_mWuDGugmXsIpkd-142" style="edgeStyle=orthogonalEdgeStyle;rounded=0;orthogonalLoop=1;jettySize=auto;html=1;exitX=0.75;exitY=1;exitDx=0;exitDy=0;entryX=1;entryY=0.5;entryDx=0;entryDy=0;strokeColor=#82b366;strokeWidth=2;fontSize=12;fillColor=#d5e8d4;" edge="1" parent="1" source="_yqxd_mWuDGugmXsIpkd-27" target="_yqxd_mWuDGugmXsIpkd-138">
          <mxGeometry relative="1" as="geometry" />
        </mxCell>
        <mxCell id="_yqxd_mWuDGugmXsIpkd-27" value="consumer 1&lt;br&gt;（leader)" style="rounded=0;whiteSpace=wrap;html=1;fillColor=#d5e8d4;strokeColor=#82b366;strokeWidth=4;" vertex="1" parent="1">
          <mxGeometry x="712.6923076923076" y="464.5371428571429" width="144.6153846153846" height="36.42857142857143" as="geometry" />
        </mxCell>
        <mxCell id="_yqxd_mWuDGugmXsIpkd-52" style="edgeStyle=orthogonalEdgeStyle;rounded=0;orthogonalLoop=1;jettySize=auto;html=1;exitX=0;exitY=0.5;exitDx=0;exitDy=0;entryX=1;entryY=0.5;entryDx=0;entryDy=0;strokeColor=#FF6666;strokeWidth=2;" edge="1" parent="1" source="_yqxd_mWuDGugmXsIpkd-28" target="_yqxd_mWuDGugmXsIpkd-8">
          <mxGeometry relative="1" as="geometry">
            <Array as="points">
              <mxPoint x="650" y="537" />
              <mxPoint x="650" y="741" />
            </Array>
          </mxGeometry>
        </mxCell>
        <mxCell id="_yqxd_mWuDGugmXsIpkd-141" style="edgeStyle=orthogonalEdgeStyle;rounded=0;orthogonalLoop=1;jettySize=auto;html=1;exitX=0.5;exitY=1;exitDx=0;exitDy=0;entryX=1;entryY=0.5;entryDx=0;entryDy=0;strokeColor=#82b366;strokeWidth=2;fontSize=12;fillColor=#d5e8d4;" edge="1" parent="1" source="_yqxd_mWuDGugmXsIpkd-28" target="_yqxd_mWuDGugmXsIpkd-138">
          <mxGeometry relative="1" as="geometry" />
        </mxCell>
        <mxCell id="_yqxd_mWuDGugmXsIpkd-28" value="consumer 2&lt;br&gt;(member)" style="rounded=0;whiteSpace=wrap;html=1;fillColor=#d5e8d4;strokeColor=#82b366;" vertex="1" parent="1">
          <mxGeometry x="712.6923076923076" y="519.1771428571429" width="144.6153846153846" height="36.42857142857143" as="geometry" />
        </mxCell>
        <mxCell id="_yqxd_mWuDGugmXsIpkd-31" value="下游消费组A" style="text;html=1;strokeColor=none;fillColor=none;align=center;verticalAlign=middle;whiteSpace=wrap;rounded=0;fontSize=15;" vertex="1" parent="1">
          <mxGeometry x="735" y="422.14" width="100" height="20" as="geometry" />
        </mxCell>
        <mxCell id="_yqxd_mWuDGugmXsIpkd-38" style="edgeStyle=orthogonalEdgeStyle;rounded=0;orthogonalLoop=1;jettySize=auto;html=1;exitX=1;exitY=0.5;exitDx=0;exitDy=0;entryX=0;entryY=0.5;entryDx=0;entryDy=0;strokeColor=#67AB9F;strokeWidth=2;" edge="1" parent="1" source="_yqxd_mWuDGugmXsIpkd-37" target="_yqxd_mWuDGugmXsIpkd-2">
          <mxGeometry relative="1" as="geometry">
            <Array as="points">
              <mxPoint x="260" y="495" />
              <mxPoint x="260" y="276" />
            </Array>
          </mxGeometry>
        </mxCell>
        <mxCell id="_yqxd_mWuDGugmXsIpkd-39" style="edgeStyle=orthogonalEdgeStyle;rounded=0;orthogonalLoop=1;jettySize=auto;html=1;exitX=1;exitY=0.5;exitDx=0;exitDy=0;entryX=0;entryY=0.5;entryDx=0;entryDy=0;strokeColor=#67AB9F;strokeWidth=2;" edge="1" parent="1" source="_yqxd_mWuDGugmXsIpkd-37" target="_yqxd_mWuDGugmXsIpkd-7">
          <mxGeometry relative="1" as="geometry">
            <Array as="points">
              <mxPoint x="260" y="495" />
              <mxPoint x="260" y="577" />
            </Array>
          </mxGeometry>
        </mxCell>
        <mxCell id="_yqxd_mWuDGugmXsIpkd-40" style="edgeStyle=orthogonalEdgeStyle;rounded=0;orthogonalLoop=1;jettySize=auto;html=1;exitX=1;exitY=0.5;exitDx=0;exitDy=0;strokeColor=#67AB9F;strokeWidth=2;" edge="1" parent="1" source="_yqxd_mWuDGugmXsIpkd-37" target="_yqxd_mWuDGugmXsIpkd-8">
          <mxGeometry relative="1" as="geometry">
            <Array as="points">
              <mxPoint x="260" y="495" />
              <mxPoint x="260" y="740" />
            </Array>
          </mxGeometry>
        </mxCell>
        <mxCell id="_yqxd_mWuDGugmXsIpkd-37" value="生产者1" style="rounded=0;whiteSpace=wrap;html=1;fillColor=#d5e8d4;strokeColor=#82b366;" vertex="1" parent="1">
          <mxGeometry x="60.00230769230757" y="476.78714285714284" width="144.6153846153846" height="36.42857142857143" as="geometry" />
        </mxCell>
        <mxCell id="_yqxd_mWuDGugmXsIpkd-41" value="发送&lt;br&gt;数据" style="text;html=1;strokeColor=none;fillColor=none;align=center;verticalAlign=middle;whiteSpace=wrap;rounded=0;" vertex="1" parent="1">
          <mxGeometry x="217.31" y="365.71000000000004" width="58" height="20" as="geometry" />
        </mxCell>
        <mxCell id="_yqxd_mWuDGugmXsIpkd-54" value="生产者2" style="rounded=0;whiteSpace=wrap;html=1;fillColor=#f5f5f5;strokeColor=#666666;fontColor=#333333;" vertex="1" parent="1">
          <mxGeometry x="60.00230769230757" y="527.6771428571428" width="144.6153846153846" height="36.42857142857143" as="geometry" />
        </mxCell>
        <mxCell id="_yqxd_mWuDGugmXsIpkd-56" value="上游生产者" style="text;html=1;strokeColor=none;fillColor=none;align=center;verticalAlign=middle;whiteSpace=wrap;rounded=0;fontSize=15;" vertex="1" parent="1">
          <mxGeometry x="91.8" y="423.96" width="81.03" height="20" as="geometry" />
        </mxCell>
        <mxCell id="_yqxd_mWuDGugmXsIpkd-57" value="消费&lt;br&gt;数据" style="text;html=1;strokeColor=none;fillColor=none;align=center;verticalAlign=middle;whiteSpace=wrap;rounded=0;" vertex="1" parent="1">
          <mxGeometry x="628" y="365.71" width="40" height="20" as="geometry" />
        </mxCell>
        <mxCell id="_yqxd_mWuDGugmXsIpkd-58" value="同步&lt;br&gt;数据" style="text;html=1;strokeColor=none;fillColor=none;align=center;verticalAlign=middle;whiteSpace=wrap;rounded=0;" vertex="1" parent="1">
          <mxGeometry x="300" y="394.82" width="30" height="20" as="geometry" />
        </mxCell>
        <mxCell id="_yqxd_mWuDGugmXsIpkd-127" style="edgeStyle=orthogonalEdgeStyle;rounded=0;orthogonalLoop=1;jettySize=auto;html=1;exitX=1;exitY=0.5;exitDx=0;exitDy=0;entryX=1;entryY=0.5;entryDx=0;entryDy=0;strokeColor=#B5739D;strokeWidth=2;fontSize=12;" edge="1" parent="1" source="_yqxd_mWuDGugmXsIpkd-59" target="_yqxd_mWuDGugmXsIpkd-124">
          <mxGeometry relative="1" as="geometry">
            <Array as="points">
              <mxPoint x="590" y="222" />
              <mxPoint x="590" y="431" />
            </Array>
          </mxGeometry>
        </mxCell>
        <mxCell id="_yqxd_mWuDGugmXsIpkd-128" style="edgeStyle=orthogonalEdgeStyle;rounded=0;orthogonalLoop=1;jettySize=auto;html=1;exitX=1;exitY=0.5;exitDx=0;exitDy=0;entryX=1;entryY=0.5;entryDx=0;entryDy=0;strokeColor=#B5739D;strokeWidth=2;fontSize=12;" edge="1" parent="1" source="_yqxd_mWuDGugmXsIpkd-59" target="_yqxd_mWuDGugmXsIpkd-125">
          <mxGeometry relative="1" as="geometry">
            <Array as="points">
              <mxPoint x="590" y="222" />
              <mxPoint x="590" y="641" />
            </Array>
          </mxGeometry>
        </mxCell>
        <mxCell id="_yqxd_mWuDGugmXsIpkd-59" value="controller" style="text;html=1;strokeColor=#b85450;fillColor=#f8cecc;align=center;verticalAlign=middle;whiteSpace=wrap;rounded=0;" vertex="1" parent="1">
          <mxGeometry x="460" y="212.68" width="80" height="18.21" as="geometry" />
        </mxCell>
        <mxCell id="_yqxd_mWuDGugmXsIpkd-108" style="edgeStyle=orthogonalEdgeStyle;rounded=0;orthogonalLoop=1;jettySize=auto;html=1;exitX=1;exitY=0.5;exitDx=0;exitDy=0;entryX=0;entryY=0.5;entryDx=0;entryDy=0;strokeColor=#000000;strokeWidth=1;fontSize=12;" edge="1" parent="1" source="_yqxd_mWuDGugmXsIpkd-63" target="_yqxd_mWuDGugmXsIpkd-64">
          <mxGeometry relative="1" as="geometry" />
        </mxCell>
        <mxCell id="_yqxd_mWuDGugmXsIpkd-109" style="edgeStyle=orthogonalEdgeStyle;rounded=0;orthogonalLoop=1;jettySize=auto;html=1;exitX=1;exitY=0.5;exitDx=0;exitDy=0;entryX=0;entryY=0.5;entryDx=0;entryDy=0;strokeColor=#000000;strokeWidth=1;fontSize=12;" edge="1" parent="1" source="_yqxd_mWuDGugmXsIpkd-63" target="_yqxd_mWuDGugmXsIpkd-65">
          <mxGeometry relative="1" as="geometry" />
        </mxCell>
        <mxCell id="_yqxd_mWuDGugmXsIpkd-110" style="edgeStyle=orthogonalEdgeStyle;rounded=0;orthogonalLoop=1;jettySize=auto;html=1;exitX=1;exitY=0.5;exitDx=0;exitDy=0;entryX=0;entryY=0.5;entryDx=0;entryDy=0;strokeColor=#000000;strokeWidth=1;fontSize=12;" edge="1" parent="1" source="_yqxd_mWuDGugmXsIpkd-63" target="_yqxd_mWuDGugmXsIpkd-66">
          <mxGeometry relative="1" as="geometry" />
        </mxCell>
        <mxCell id="_yqxd_mWuDGugmXsIpkd-63" value="Acceptor" style="rounded=0;whiteSpace=wrap;html=1;strokeWidth=1;fontSize=15;" vertex="1" parent="1">
          <mxGeometry x="57.83" y="1209.6399999999999" width="105" height="30" as="geometry" />
        </mxCell>
        <mxCell id="_yqxd_mWuDGugmXsIpkd-77" value="" style="group" vertex="1" connectable="0" parent="1">
          <mxGeometry x="219" y="1151" width="266" height="157.27" as="geometry" />
        </mxCell>
        <mxCell id="_yqxd_mWuDGugmXsIpkd-76" value="" style="group" vertex="1" connectable="0" parent="_yqxd_mWuDGugmXsIpkd-77">
          <mxGeometry width="266" height="157.27" as="geometry" />
        </mxCell>
        <mxCell id="_yqxd_mWuDGugmXsIpkd-67" value="" style="group" vertex="1" connectable="0" parent="_yqxd_mWuDGugmXsIpkd-76">
          <mxGeometry width="88.9415068193421" height="100.00000000000003" as="geometry" />
        </mxCell>
        <mxCell id="_yqxd_mWuDGugmXsIpkd-64" value="socketChannel" style="rounded=0;whiteSpace=wrap;html=1;strokeWidth=1;fontSize=12;" vertex="1" parent="_yqxd_mWuDGugmXsIpkd-67">
          <mxGeometry y="-10.000000000000002" width="88.9415068193421" height="27.27272727272728" as="geometry" />
        </mxCell>
        <mxCell id="_yqxd_mWuDGugmXsIpkd-68" value="" style="group" vertex="1" connectable="0" parent="_yqxd_mWuDGugmXsIpkd-76">
          <mxGeometry x="88.9415068193421" width="88.9415068193421" height="100.00000000000003" as="geometry" />
        </mxCell>
        <mxCell id="_yqxd_mWuDGugmXsIpkd-69" value="socketChannel" style="rounded=0;whiteSpace=wrap;html=1;strokeWidth=1;fontSize=12;" vertex="1" parent="_yqxd_mWuDGugmXsIpkd-68">
          <mxGeometry y="-10.000000000000002" width="88.9415068193421" height="27.27272727272728" as="geometry" />
        </mxCell>
        <mxCell id="_yqxd_mWuDGugmXsIpkd-72" value="" style="group" vertex="1" connectable="0" parent="_yqxd_mWuDGugmXsIpkd-76">
          <mxGeometry x="176.24367296331414" width="88.9415068193421" height="100.00000000000003" as="geometry" />
        </mxCell>
        <mxCell id="_yqxd_mWuDGugmXsIpkd-73" value="socketChannel" style="rounded=0;whiteSpace=wrap;html=1;strokeWidth=1;fontSize=12;" vertex="1" parent="_yqxd_mWuDGugmXsIpkd-72">
          <mxGeometry y="-10.000000000000002" width="88.9415068193421" height="27.27272727272728" as="geometry" />
        </mxCell>
        <mxCell id="_yqxd_mWuDGugmXsIpkd-65" value="socketChannel" style="rounded=0;whiteSpace=wrap;html=1;strokeWidth=1;fontSize=12;" vertex="1" parent="_yqxd_mWuDGugmXsIpkd-76">
          <mxGeometry y="60.003636363636375" width="88.9415068193421" height="27.27272727272728" as="geometry" />
        </mxCell>
        <mxCell id="_yqxd_mWuDGugmXsIpkd-66" value="socketChannel" style="rounded=0;whiteSpace=wrap;html=1;strokeWidth=1;fontSize=12;" vertex="1" parent="_yqxd_mWuDGugmXsIpkd-76">
          <mxGeometry x="0.8148202173437142" y="129.99727272727276" width="88.9415068193421" height="27.27272727272728" as="geometry" />
        </mxCell>
        <mxCell id="_yqxd_mWuDGugmXsIpkd-70" value="socketChannel" style="rounded=0;whiteSpace=wrap;html=1;strokeWidth=1;fontSize=12;" vertex="1" parent="_yqxd_mWuDGugmXsIpkd-76">
          <mxGeometry x="88.9415068193421" y="60.003636363636375" width="88.9415068193421" height="27.27272727272728" as="geometry" />
        </mxCell>
        <mxCell id="_yqxd_mWuDGugmXsIpkd-71" value="socketChannel" style="rounded=0;whiteSpace=wrap;html=1;strokeWidth=1;fontSize=12;" vertex="1" parent="_yqxd_mWuDGugmXsIpkd-76">
          <mxGeometry x="89.75632703668583" y="129.99727272727276" width="88.9415068193421" height="27.27272727272728" as="geometry" />
        </mxCell>
        <mxCell id="_yqxd_mWuDGugmXsIpkd-74" value="socketChannel" style="rounded=0;whiteSpace=wrap;html=1;strokeWidth=1;fontSize=12;" vertex="1" parent="_yqxd_mWuDGugmXsIpkd-76">
          <mxGeometry x="176.24367296331414" y="60.003636363636375" width="88.9415068193421" height="27.27272727272728" as="geometry" />
        </mxCell>
        <mxCell id="_yqxd_mWuDGugmXsIpkd-75" value="socketChannel" style="rounded=0;whiteSpace=wrap;html=1;strokeWidth=1;fontSize=12;" vertex="1" parent="_yqxd_mWuDGugmXsIpkd-76">
          <mxGeometry x="177.05849318065793" y="129.99727272727276" width="88.9415068193421" height="27.27272727272728" as="geometry" />
        </mxCell>
        <mxCell id="_yqxd_mWuDGugmXsIpkd-78" value="" style="group" vertex="1" connectable="0" parent="1">
          <mxGeometry x="515" y="1221" width="266" height="157.27" as="geometry" />
        </mxCell>
        <mxCell id="_yqxd_mWuDGugmXsIpkd-79" value="" style="group" vertex="1" connectable="0" parent="_yqxd_mWuDGugmXsIpkd-78">
          <mxGeometry x="36" y="40" width="266" height="157.27" as="geometry" />
        </mxCell>
        <mxCell id="_yqxd_mWuDGugmXsIpkd-80" value="" style="group" vertex="1" connectable="0" parent="_yqxd_mWuDGugmXsIpkd-79">
          <mxGeometry width="88.9415068193421" height="100.00000000000003" as="geometry" />
        </mxCell>
        <mxCell id="_yqxd_mWuDGugmXsIpkd-81" value="socketChannel" style="rounded=0;whiteSpace=wrap;html=1;strokeWidth=1;fontSize=12;" vertex="1" parent="_yqxd_mWuDGugmXsIpkd-80">
          <mxGeometry y="-10.000000000000002" width="88.9415068193421" height="27.27272727272728" as="geometry" />
        </mxCell>
        <mxCell id="_yqxd_mWuDGugmXsIpkd-82" value="" style="group" vertex="1" connectable="0" parent="_yqxd_mWuDGugmXsIpkd-79">
          <mxGeometry x="88.9415068193421" width="88.9415068193421" height="100.00000000000003" as="geometry" />
        </mxCell>
        <mxCell id="_yqxd_mWuDGugmXsIpkd-83" value="socketChannel" style="rounded=0;whiteSpace=wrap;html=1;strokeWidth=1;fontSize=12;" vertex="1" parent="_yqxd_mWuDGugmXsIpkd-82">
          <mxGeometry y="-10.000000000000002" width="88.9415068193421" height="27.27272727272728" as="geometry" />
        </mxCell>
        <mxCell id="_yqxd_mWuDGugmXsIpkd-84" value="" style="group" vertex="1" connectable="0" parent="_yqxd_mWuDGugmXsIpkd-79">
          <mxGeometry x="176.24367296331414" width="88.9415068193421" height="100.00000000000003" as="geometry" />
        </mxCell>
        <mxCell id="_yqxd_mWuDGugmXsIpkd-85" value="socketChannel" style="rounded=0;whiteSpace=wrap;html=1;strokeWidth=1;fontSize=12;" vertex="1" parent="_yqxd_mWuDGugmXsIpkd-84">
          <mxGeometry y="-10.000000000000002" width="88.9415068193421" height="27.27272727272728" as="geometry" />
        </mxCell>
        <mxCell id="_yqxd_mWuDGugmXsIpkd-86" value="socketChannel" style="rounded=0;whiteSpace=wrap;html=1;strokeWidth=1;fontSize=12;" vertex="1" parent="_yqxd_mWuDGugmXsIpkd-79">
          <mxGeometry y="60.003636363636375" width="88.9415068193421" height="27.27272727272728" as="geometry" />
        </mxCell>
        <mxCell id="_yqxd_mWuDGugmXsIpkd-87" value="socketChannel" style="rounded=0;whiteSpace=wrap;html=1;strokeWidth=1;fontSize=12;" vertex="1" parent="_yqxd_mWuDGugmXsIpkd-79">
          <mxGeometry x="0.8148202173437142" y="129.99727272727276" width="88.9415068193421" height="27.27272727272728" as="geometry" />
        </mxCell>
        <mxCell id="_yqxd_mWuDGugmXsIpkd-88" value="socketChannel" style="rounded=0;whiteSpace=wrap;html=1;strokeWidth=1;fontSize=12;" vertex="1" parent="_yqxd_mWuDGugmXsIpkd-79">
          <mxGeometry x="88.9415068193421" y="60.003636363636375" width="88.9415068193421" height="27.27272727272728" as="geometry" />
        </mxCell>
        <mxCell id="_yqxd_mWuDGugmXsIpkd-89" value="socketChannel" style="rounded=0;whiteSpace=wrap;html=1;strokeWidth=1;fontSize=12;" vertex="1" parent="_yqxd_mWuDGugmXsIpkd-79">
          <mxGeometry x="89.75632703668583" y="129.99727272727276" width="88.9415068193421" height="27.27272727272728" as="geometry" />
        </mxCell>
        <mxCell id="_yqxd_mWuDGugmXsIpkd-90" value="socketChannel" style="rounded=0;whiteSpace=wrap;html=1;strokeWidth=1;fontSize=12;" vertex="1" parent="_yqxd_mWuDGugmXsIpkd-79">
          <mxGeometry x="176.24367296331414" y="60.003636363636375" width="88.9415068193421" height="27.27272727272728" as="geometry" />
        </mxCell>
        <mxCell id="_yqxd_mWuDGugmXsIpkd-91" value="socketChannel" style="rounded=0;whiteSpace=wrap;html=1;strokeWidth=1;fontSize=12;" vertex="1" parent="_yqxd_mWuDGugmXsIpkd-79">
          <mxGeometry x="177.05849318065793" y="129.99727272727276" width="88.9415068193421" height="27.27272727272728" as="geometry" />
        </mxCell>
        <mxCell id="_yqxd_mWuDGugmXsIpkd-95" value="" style="group" vertex="1" connectable="0" parent="1">
          <mxGeometry x="550" y="1141" width="200" height="27.27" as="geometry" />
        </mxCell>
        <mxCell id="_yqxd_mWuDGugmXsIpkd-92" value="request" style="rounded=0;whiteSpace=wrap;html=1;strokeWidth=1;fontSize=12;" vertex="1" parent="_yqxd_mWuDGugmXsIpkd-95">
          <mxGeometry width="67.0787914258541" height="27.270000000000028" as="geometry" />
        </mxCell>
        <mxCell id="_yqxd_mWuDGugmXsIpkd-93" value="request" style="rounded=0;whiteSpace=wrap;html=1;strokeWidth=1;fontSize=12;" vertex="1" parent="_yqxd_mWuDGugmXsIpkd-95">
          <mxGeometry x="67.07879142585409" width="67.0787914258541" height="27.270000000000028" as="geometry" />
        </mxCell>
        <mxCell id="_yqxd_mWuDGugmXsIpkd-94" value="request" style="rounded=0;whiteSpace=wrap;html=1;strokeWidth=1;fontSize=12;" vertex="1" parent="_yqxd_mWuDGugmXsIpkd-95">
          <mxGeometry x="132.9212085741459" width="67.0787914258541" height="27.270000000000028" as="geometry" />
        </mxCell>
        <mxCell id="_yqxd_mWuDGugmXsIpkd-98" style="edgeStyle=orthogonalEdgeStyle;rounded=0;orthogonalLoop=1;jettySize=auto;html=1;exitX=1;exitY=0.5;exitDx=0;exitDy=0;entryX=0;entryY=0.5;entryDx=0;entryDy=0;strokeWidth=2;fontSize=12;" edge="1" parent="1" source="_yqxd_mWuDGugmXsIpkd-96" target="_yqxd_mWuDGugmXsIpkd-97">
          <mxGeometry relative="1" as="geometry" />
        </mxCell>
        <mxCell id="_yqxd_mWuDGugmXsIpkd-96" value="线程池" style="ellipse;whiteSpace=wrap;html=1;aspect=fixed;strokeWidth=1;fontSize=12;" vertex="1" parent="1">
          <mxGeometry x="870" y="1224.6399999999999" width="80" height="80" as="geometry" />
        </mxCell>
        <mxCell id="_yqxd_mWuDGugmXsIpkd-97" value="磁盘" style="shape=datastore;whiteSpace=wrap;html=1;strokeWidth=1;fontSize=12;" vertex="1" parent="1">
          <mxGeometry x="990" y="1239.6399999999999" width="50" height="50" as="geometry" />
        </mxCell>
        <mxCell id="_yqxd_mWuDGugmXsIpkd-100" style="edgeStyle=orthogonalEdgeStyle;rounded=0;orthogonalLoop=1;jettySize=auto;html=1;exitX=1;exitY=0.5;exitDx=0;exitDy=0;entryX=0;entryY=0.5;entryDx=0;entryDy=0;strokeColor=#000000;strokeWidth=2;fontSize=12;" edge="1" parent="1" source="_yqxd_mWuDGugmXsIpkd-85" target="_yqxd_mWuDGugmXsIpkd-96">
          <mxGeometry relative="1" as="geometry" />
        </mxCell>
        <mxCell id="_yqxd_mWuDGugmXsIpkd-101" style="edgeStyle=orthogonalEdgeStyle;rounded=0;orthogonalLoop=1;jettySize=auto;html=1;exitX=1;exitY=0.5;exitDx=0;exitDy=0;entryX=0;entryY=1;entryDx=0;entryDy=0;strokeColor=#000000;strokeWidth=2;fontSize=12;" edge="1" parent="1" source="_yqxd_mWuDGugmXsIpkd-90" target="_yqxd_mWuDGugmXsIpkd-96">
          <mxGeometry relative="1" as="geometry">
            <Array as="points">
              <mxPoint x="882" y="1335" />
            </Array>
          </mxGeometry>
        </mxCell>
        <mxCell id="_yqxd_mWuDGugmXsIpkd-102" style="edgeStyle=orthogonalEdgeStyle;rounded=0;orthogonalLoop=1;jettySize=auto;html=1;exitX=1;exitY=0.5;exitDx=0;exitDy=0;entryX=0.5;entryY=1;entryDx=0;entryDy=0;strokeColor=#000000;strokeWidth=2;fontSize=12;" edge="1" parent="1" source="_yqxd_mWuDGugmXsIpkd-91" target="_yqxd_mWuDGugmXsIpkd-96">
          <mxGeometry relative="1" as="geometry" />
        </mxCell>
        <mxCell id="_yqxd_mWuDGugmXsIpkd-103" style="edgeStyle=orthogonalEdgeStyle;rounded=0;orthogonalLoop=1;jettySize=auto;html=1;exitX=1;exitY=0.5;exitDx=0;exitDy=0;entryX=0;entryY=0;entryDx=0;entryDy=0;strokeColor=#000000;strokeWidth=2;fontSize=12;" edge="1" parent="1" source="_yqxd_mWuDGugmXsIpkd-94" target="_yqxd_mWuDGugmXsIpkd-96">
          <mxGeometry relative="1" as="geometry" />
        </mxCell>
        <mxCell id="_yqxd_mWuDGugmXsIpkd-104" style="edgeStyle=orthogonalEdgeStyle;rounded=0;orthogonalLoop=1;jettySize=auto;html=1;exitX=1;exitY=0.5;exitDx=0;exitDy=0;strokeColor=#000000;strokeWidth=1;fontSize=12;" edge="1" parent="1" source="_yqxd_mWuDGugmXsIpkd-73" target="_yqxd_mWuDGugmXsIpkd-92">
          <mxGeometry relative="1" as="geometry" />
        </mxCell>
        <mxCell id="_yqxd_mWuDGugmXsIpkd-105" style="edgeStyle=orthogonalEdgeStyle;rounded=0;orthogonalLoop=1;jettySize=auto;html=1;exitX=1;exitY=0.5;exitDx=0;exitDy=0;entryX=0;entryY=0.5;entryDx=0;entryDy=0;strokeColor=#000000;strokeWidth=1;fontSize=12;" edge="1" parent="1" source="_yqxd_mWuDGugmXsIpkd-74" target="_yqxd_mWuDGugmXsIpkd-92">
          <mxGeometry relative="1" as="geometry" />
        </mxCell>
        <mxCell id="_yqxd_mWuDGugmXsIpkd-106" style="edgeStyle=orthogonalEdgeStyle;rounded=0;orthogonalLoop=1;jettySize=auto;html=1;exitX=1;exitY=0.5;exitDx=0;exitDy=0;entryX=0;entryY=0.5;entryDx=0;entryDy=0;strokeColor=#000000;strokeWidth=1;fontSize=12;" edge="1" parent="1" source="_yqxd_mWuDGugmXsIpkd-75" target="_yqxd_mWuDGugmXsIpkd-92">
          <mxGeometry relative="1" as="geometry" />
        </mxCell>
        <mxCell id="_yqxd_mWuDGugmXsIpkd-107" style="edgeStyle=orthogonalEdgeStyle;rounded=0;orthogonalLoop=1;jettySize=auto;html=1;exitX=0.5;exitY=1;exitDx=0;exitDy=0;entryX=0.5;entryY=1;entryDx=0;entryDy=0;strokeColor=#000000;strokeWidth=1;fontSize=12;" edge="1" parent="1" source="_yqxd_mWuDGugmXsIpkd-66" target="_yqxd_mWuDGugmXsIpkd-87">
          <mxGeometry relative="1" as="geometry" />
        </mxCell>
        <mxCell id="_yqxd_mWuDGugmXsIpkd-113" style="edgeStyle=orthogonalEdgeStyle;rounded=0;orthogonalLoop=1;jettySize=auto;html=1;exitX=1;exitY=0.5;exitDx=0;exitDy=0;strokeColor=#000000;strokeWidth=1;fontSize=12;" edge="1" parent="1" source="_yqxd_mWuDGugmXsIpkd-112" target="_yqxd_mWuDGugmXsIpkd-63">
          <mxGeometry relative="1" as="geometry" />
        </mxCell>
        <mxCell id="_yqxd_mWuDGugmXsIpkd-112" value="客户端" style="rounded=0;whiteSpace=wrap;html=1;strokeWidth=1;fontSize=12;" vertex="1" parent="1">
          <mxGeometry x="-120" y="1210" width="120" height="30" as="geometry" />
        </mxCell>
        <mxCell id="_yqxd_mWuDGugmXsIpkd-115" value="" style="group" vertex="1" connectable="0" parent="1">
          <mxGeometry x="215" y="30" width="460" height="90" as="geometry" />
        </mxCell>
        <mxCell id="_yqxd_mWuDGugmXsIpkd-22" value="" style="rounded=0;whiteSpace=wrap;html=1;fillColor=#e1d5e7;strokeColor=#9673a6;" vertex="1" parent="_yqxd_mWuDGugmXsIpkd-115">
          <mxGeometry width="459.99999999999994" height="90" as="geometry" />
        </mxCell>
        <mxCell id="_yqxd_mWuDGugmXsIpkd-21" value="" style="group" vertex="1" connectable="0" parent="_yqxd_mWuDGugmXsIpkd-115">
          <mxGeometry x="8.363636363636363" y="36" width="443.27272727272725" height="36" as="geometry" />
        </mxCell>
        <mxCell id="_yqxd_mWuDGugmXsIpkd-1" value="zk leader" style="rounded=0;whiteSpace=wrap;html=1;fillColor=#d5e8d4;strokeColor=#82b366;" vertex="1" parent="_yqxd_mWuDGugmXsIpkd-21">
          <mxGeometry x="154.5622009569378" width="137.0645933014354" height="36" as="geometry" />
        </mxCell>
        <mxCell id="_yqxd_mWuDGugmXsIpkd-19" value="zk follower" style="rounded=0;whiteSpace=wrap;html=1;fillColor=#f5f5f5;strokeColor=#666666;fontColor=#333333;" vertex="1" parent="_yqxd_mWuDGugmXsIpkd-21">
          <mxGeometry width="137.0645933014354" height="36" as="geometry" />
        </mxCell>
        <mxCell id="_yqxd_mWuDGugmXsIpkd-20" value="zk follower" style="rounded=0;whiteSpace=wrap;html=1;fillColor=#f5f5f5;strokeColor=#666666;fontColor=#333333;" vertex="1" parent="_yqxd_mWuDGugmXsIpkd-21">
          <mxGeometry x="306.20813397129183" width="137.0645933014354" height="36" as="geometry" />
        </mxCell>
        <mxCell id="_yqxd_mWuDGugmXsIpkd-23" value="zookeeper集群" style="text;html=1;strokeColor=none;fillColor=none;align=center;verticalAlign=middle;whiteSpace=wrap;rounded=0;fontSize=15;" vertex="1" parent="_yqxd_mWuDGugmXsIpkd-115">
          <mxGeometry x="175" width="110" height="18" as="geometry" />
        </mxCell>
        <mxCell id="_yqxd_mWuDGugmXsIpkd-114" style="edgeStyle=orthogonalEdgeStyle;rounded=0;orthogonalLoop=1;jettySize=auto;html=1;exitX=0.5;exitY=0;exitDx=0;exitDy=0;entryX=0.5;entryY=1;entryDx=0;entryDy=0;strokeWidth=2;fontSize=12;strokeColor=#B5739D;" edge="1" parent="1" source="_yqxd_mWuDGugmXsIpkd-24" target="_yqxd_mWuDGugmXsIpkd-22">
          <mxGeometry relative="1" as="geometry" />
        </mxCell>
        <mxCell id="_yqxd_mWuDGugmXsIpkd-62" style="edgeStyle=orthogonalEdgeStyle;rounded=0;orthogonalLoop=1;jettySize=auto;html=1;strokeWidth=2;fontSize=15;fillColor=#f8cecc;strokeColor=#FF9999;entryX=0.75;entryY=1;entryDx=0;entryDy=0;" edge="1" parent="1" target="_yqxd_mWuDGugmXsIpkd-22">
          <mxGeometry relative="1" as="geometry">
            <mxPoint x="540" y="222" as="sourcePoint" />
            <Array as="points">
              <mxPoint x="560" y="222" />
            </Array>
          </mxGeometry>
        </mxCell>
        <mxCell id="_yqxd_mWuDGugmXsIpkd-116" value="注册" style="text;html=1;strokeColor=none;fillColor=none;align=center;verticalAlign=middle;whiteSpace=wrap;rounded=0;fontSize=12;" vertex="1" parent="1">
          <mxGeometry x="400" y="130" width="40" height="20" as="geometry" />
        </mxCell>
        <mxCell id="_yqxd_mWuDGugmXsIpkd-117" value="注册并监听" style="text;html=1;strokeColor=none;fillColor=none;align=center;verticalAlign=middle;whiteSpace=wrap;rounded=0;fontSize=12;" vertex="1" parent="1">
          <mxGeometry x="480" y="130" width="70" height="20" as="geometry" />
        </mxCell>
        <mxCell id="_yqxd_mWuDGugmXsIpkd-118" value="" style="line;strokeWidth=2;direction=south;html=1;fontSize=12;" vertex="1" parent="1">
          <mxGeometry x="276.66" y="880" width="10" height="160" as="geometry" />
        </mxCell>
        <mxCell id="_yqxd_mWuDGugmXsIpkd-119" value="" style="line;strokeWidth=2;direction=south;html=1;fontSize=12;" vertex="1" parent="1">
          <mxGeometry x="603.35" y="880" width="10" height="160" as="geometry" />
        </mxCell>
        <mxCell id="_yqxd_mWuDGugmXsIpkd-120" value="&lt;h1&gt;producer&lt;/h1&gt;&lt;p&gt;连接池&lt;/p&gt;&lt;p&gt;分区&lt;/p&gt;&lt;p&gt;批量缓冲&lt;/p&gt;&lt;p&gt;重试&lt;/p&gt;" style="text;html=1;strokeColor=none;fillColor=none;spacing=5;spacingTop=-20;whiteSpace=wrap;overflow=hidden;rounded=0;fontSize=12;" vertex="1" parent="1">
          <mxGeometry x="50" y="870" width="190" height="160" as="geometry" />
        </mxCell>
        <mxCell id="_yqxd_mWuDGugmXsIpkd-121" value="&lt;h1&gt;broker&lt;/h1&gt;&lt;p&gt;reactor网络模型&lt;/p&gt;&lt;p&gt;分布式部署，节点横向拓展&lt;/p&gt;&lt;p&gt;数据分片，主从备份同步（ISR）&lt;/p&gt;&lt;p&gt;顺序磁盘IO&lt;/p&gt;&lt;p&gt;coordinator manager维护offset&lt;/p&gt;&lt;p&gt;&lt;br&gt;&lt;/p&gt;" style="text;html=1;strokeColor=none;fillColor=none;spacing=5;spacingTop=-20;whiteSpace=wrap;overflow=hidden;rounded=0;fontSize=12;" vertex="1" parent="1">
          <mxGeometry x="350" y="870" width="200" height="180" as="geometry" />
        </mxCell>
        <mxCell id="_yqxd_mWuDGugmXsIpkd-122" value="&lt;h1&gt;consumer&lt;/h1&gt;&lt;p&gt;零拷贝&lt;/p&gt;&lt;p&gt;offset提交( 保存__consumers_offsets的topic中）&lt;/p&gt;&lt;p&gt;rebalance&lt;/p&gt;&lt;p&gt;consumer group状态机&lt;/p&gt;" style="text;html=1;strokeColor=none;fillColor=none;spacing=5;spacingTop=-20;whiteSpace=wrap;overflow=hidden;rounded=0;fontSize=12;" vertex="1" parent="1">
          <mxGeometry x="650" y="870" width="270" height="150" as="geometry" />
        </mxCell>
        <mxCell id="_yqxd_mWuDGugmXsIpkd-123" value="&lt;h1&gt;zookeeper&lt;/h1&gt;&lt;p&gt;选举 controller，负责管理集群broker的上下线，分区选举，&lt;span&gt;topic的分区副本分配&lt;/span&gt;&lt;/p&gt;&lt;p&gt;zk leader选举&lt;/p&gt;&lt;p&gt;broker连接管理&lt;/p&gt;&lt;p&gt;producer元数据拉取&lt;/p&gt;&lt;p&gt;&lt;br&gt;&lt;/p&gt;" style="text;html=1;strokeColor=none;fillColor=none;spacing=5;spacingTop=-20;whiteSpace=wrap;overflow=hidden;rounded=0;fontSize=12;" vertex="1" parent="1">
          <mxGeometry x="690" y="30" width="160" height="180" as="geometry" />
        </mxCell>
        <mxCell id="_yqxd_mWuDGugmXsIpkd-124" value="非 controller" style="text;html=1;strokeColor=#666666;fillColor=#f5f5f5;align=center;verticalAlign=middle;whiteSpace=wrap;rounded=0;fontColor=#333333;" vertex="1" parent="1">
          <mxGeometry x="460" y="421.97" width="80" height="18.21" as="geometry" />
        </mxCell>
        <mxCell id="_yqxd_mWuDGugmXsIpkd-125" value="非 controller" style="text;html=1;strokeColor=#666666;fillColor=#f5f5f5;align=center;verticalAlign=middle;whiteSpace=wrap;rounded=0;fontColor=#333333;" vertex="1" parent="1">
          <mxGeometry x="460" y="631.79" width="78.66" height="18.21" as="geometry" />
        </mxCell>
        <mxCell id="_yqxd_mWuDGugmXsIpkd-129" value="同步&lt;br&gt;信息" style="text;html=1;strokeColor=none;fillColor=none;align=center;verticalAlign=middle;whiteSpace=wrap;rounded=0;" vertex="1" parent="1">
          <mxGeometry x="552.3" y="320.17999999999995" width="40" height="20" as="geometry" />
        </mxCell>
        <mxCell id="_yqxd_mWuDGugmXsIpkd-134" style="edgeStyle=orthogonalEdgeStyle;rounded=0;orthogonalLoop=1;jettySize=auto;html=1;exitX=0;exitY=0.75;exitDx=0;exitDy=0;entryX=0;entryY=0.5;entryDx=0;entryDy=0;strokeColor=#B5739D;strokeWidth=2;fontSize=12;" edge="1" parent="1" source="_yqxd_mWuDGugmXsIpkd-2" target="_yqxd_mWuDGugmXsIpkd-5">
          <mxGeometry relative="1" as="geometry">
            <Array as="points">
              <mxPoint x="330" y="286" />
              <mxPoint x="330" y="531" />
            </Array>
          </mxGeometry>
        </mxCell>
        <mxCell id="_yqxd_mWuDGugmXsIpkd-135" style="edgeStyle=orthogonalEdgeStyle;rounded=0;orthogonalLoop=1;jettySize=auto;html=1;exitX=0;exitY=0.75;exitDx=0;exitDy=0;entryX=0;entryY=0.5;entryDx=0;entryDy=0;strokeColor=#B5739D;strokeWidth=2;fontSize=12;" edge="1" parent="1" source="_yqxd_mWuDGugmXsIpkd-2" target="_yqxd_mWuDGugmXsIpkd-11">
          <mxGeometry relative="1" as="geometry">
            <Array as="points">
              <mxPoint x="330" y="286" />
              <mxPoint x="330" y="696" />
            </Array>
          </mxGeometry>
        </mxCell>
        <mxCell id="_yqxd_mWuDGugmXsIpkd-2" value="topicA-parition1&lt;br&gt;(leader)" style="rounded=0;whiteSpace=wrap;html=1;fillColor=#d5e8d4;strokeColor=#82b366;strokeWidth=4;" vertex="1" parent="1">
          <mxGeometry x="391.0098976504938" y="258.21" width="108.9901023495062" height="36.42847622233606" as="geometry" />
        </mxCell>
        <mxCell id="_yqxd_mWuDGugmXsIpkd-4" value="topicA-parition2&lt;br&gt;(follower)" style="rounded=0;whiteSpace=wrap;html=1;fillColor=#dae8fc;strokeColor=#6c8ebf;" vertex="1" parent="1">
          <mxGeometry x="391.0098976504938" y="303.7455952779201" width="108.9901023495062" height="36.42847622233606" as="geometry" />
        </mxCell>
        <mxCell id="_yqxd_mWuDGugmXsIpkd-5" value="topicA-parition1&lt;br&gt;(follower)" style="rounded=0;whiteSpace=wrap;html=1;fillColor=#d5e8d4;strokeColor=#82b366;" vertex="1" parent="1">
          <mxGeometry x="391.0098976504938" y="513.2107621240474" width="108.9901023495062" height="36.42847622233606" as="geometry" />
        </mxCell>
        <mxCell id="_yqxd_mWuDGugmXsIpkd-6" value="topicA-parition3&lt;br&gt;(follower)" style="rounded=0;whiteSpace=wrap;html=1;fillColor=#ffe6cc;strokeColor=#d79b00;" vertex="1" parent="1">
          <mxGeometry x="391.0098976504938" y="467.67516684612735" width="108.9901023495062" height="36.42847622233606" as="geometry" />
        </mxCell>
        <mxCell id="_yqxd_mWuDGugmXsIpkd-7" value="topicA-parition2&lt;br&gt;(leader)" style="rounded=0;whiteSpace=wrap;html=1;fillColor=#dae8fc;strokeColor=#6c8ebf;strokeWidth=4;" vertex="1" parent="1">
          <mxGeometry x="391.0098976504938" y="558.7463574019674" width="108.9901023495062" height="36.42847622233606" as="geometry" />
        </mxCell>
        <mxCell id="_yqxd_mWuDGugmXsIpkd-8" value="topicA-parition3&lt;br&gt;(leader)" style="rounded=0;whiteSpace=wrap;html=1;fillColor=#ffe6cc;strokeColor=#d79b00;strokeWidth=4;" vertex="1" parent="1">
          <mxGeometry x="390" y="722.8559284997439" width="108.9901023495062" height="36.42847622233606" as="geometry" />
        </mxCell>
        <mxCell id="_yqxd_mWuDGugmXsIpkd-9" value="topicA-parition3&lt;br&gt;(follower)" style="rounded=0;whiteSpace=wrap;html=1;fillColor=#ffe6cc;strokeColor=#d79b00;" vertex="1" parent="1">
          <mxGeometry x="391.0098976504938" y="349.28119055584017" width="108.9901023495062" height="36.42847622233606" as="geometry" />
        </mxCell>
        <mxCell id="_yqxd_mWuDGugmXsIpkd-10" value="topicA-parition2&lt;br&gt;(follower)" style="rounded=0;whiteSpace=wrap;html=1;fillColor=#dae8fc;strokeColor=#6c8ebf;" vertex="1" parent="1">
          <mxGeometry x="390" y="768.3915237776639" width="108.9901023495062" height="36.42847622233606" as="geometry" />
        </mxCell>
        <mxCell id="_yqxd_mWuDGugmXsIpkd-11" value="topicA-parition1&lt;br&gt;(follower)" style="rounded=0;whiteSpace=wrap;html=1;fillColor=#d5e8d4;strokeColor=#82b366;" vertex="1" parent="1">
          <mxGeometry x="390" y="677.3203332218238" width="108.9901023495062" height="36.42847622233606" as="geometry" />
        </mxCell>
        <mxCell id="_yqxd_mWuDGugmXsIpkd-138" value="coordinator" style="text;html=1;strokeColor=#b85450;fillColor=#f8cecc;align=center;verticalAlign=middle;whiteSpace=wrap;rounded=0;" vertex="1" parent="1">
          <mxGeometry x="458.66" y="813.93" width="80" height="18.21" as="geometry" />
        </mxCell>
        <mxCell id="_yqxd_mWuDGugmXsIpkd-143" value="心跳，提交offset" style="text;html=1;strokeColor=none;fillColor=none;align=center;verticalAlign=middle;whiteSpace=wrap;rounded=0;" vertex="1" parent="1">
          <mxGeometry x="650" y="804.82" width="110" height="20" as="geometry" />
        </mxCell>
        <mxCell id="_yqxd_mWuDGugmXsIpkd-144" style="edgeStyle=orthogonalEdgeStyle;rounded=0;orthogonalLoop=1;jettySize=auto;html=1;exitX=0;exitY=0.75;exitDx=0;exitDy=0;strokeColor=#6c8ebf;strokeWidth=2;fontSize=12;fillColor=#dae8fc;dashed=1;" edge="1" parent="1" source="_yqxd_mWuDGugmXsIpkd-22" target="_yqxd_mWuDGugmXsIpkd-55">
          <mxGeometry relative="1" as="geometry" />
        </mxCell>
        <mxCell id="_yqxd_mWuDGugmXsIpkd-145" value="各分区leader broker信息拉取" style="text;html=1;strokeColor=none;fillColor=none;align=center;verticalAlign=middle;whiteSpace=wrap;rounded=0;" vertex="1" parent="1">
          <mxGeometry x="130" y="190" width="58" height="51.79" as="geometry" />
        </mxCell>
      </root>
    </mxGraphModel>
  </diagram>
</mxfile>
